<svg width="80" height="80" viewBox="0 0 80 80" fill="none" xmlns="http://www.w3.org/2000/svg">
<rect width="80" height="80" rx="24" fill="#45B36B"/>
<path fill-rule="evenodd" clip-rule="evenodd" d="M40 49C43.866 49 47 45.866 47 42C47 38.134 43.866 35 40 35C36.134 35 33 38.134 33 42C33 45.866 36.134 49 40 49ZM40 51C44.9706 51 49 46.9706 49 42C49 37.0294 44.9706 33 40 33C35.0294 33 31 37.0294 31 42C31 46.9706 35.0294 51 40 51Z" fill="#FCFCFD"/>
<path d="M39 38C39 37.4477 39.4477 37 40 37C40.5523 37 41 37.4477 41 38V42C41 42.5523 40.5523 43 40 43C39.4477 43 39 42.5523 39 42V38Z" fill="#FCFCFD"/>
<path d="M38 29C37.4477 29 37 29.4477 37 30C37 30.5523 37.4477 31 38 31H42C42.5523 31 43 30.5523 43 30C43 29.4477 42.5523 29 42 29H38Z" fill="#FCFCFD"/>
<path d="M48.7071 32.2929C48.3166 31.9024 47.6834 31.9024 47.2929 32.2929C46.9024 32.6834 46.9024 33.3166 47.2929 33.7071L48.2929 34.7071C48.6834 35.0976 49.3166 35.0976 49.7071 34.7071C50.0976 34.3166 50.0976 33.6834 49.7071 33.2929L48.7071 32.2929Z" fill="#FCFCFD"/>
</svg>
