<svg width="80" height="80" viewBox="0 0 80 80" fill="none" xmlns="http://www.w3.org/2000/svg">
<rect width="80" height="80" rx="24" fill="#9757D7"/>
<path fill-rule="evenodd" clip-rule="evenodd" d="M42.1466 39.2161L49.124 38.3439C49.6245 38.2814 50 37.856 50 37.3517V35C50 34.4477 49.5523 34 49 34H45.4649C44.7733 35.1956 43.4806 36 42 36C40.5194 36 39.2267 35.1956 38.5351 34H36C32.6863 34 30 36.6863 30 40C30 43.3137 32.6863 46 36 46C39.0562 46 41.5813 43.7133 41.9527 40.7584L42.1466 39.2161ZM39.5 32C39.7761 32 39.9936 32.2273 40.0617 32.4949C40.282 33.3601 41.0663 34 42 34C42.9337 34 43.718 33.3601 43.9383 32.4949C44.0064 32.2273 44.2239 32 44.5 32H49C50.6569 32 52 33.3431 52 35V37.3517C52 38.8646 50.8734 40.1408 49.3721 40.3285L43.9371 41.0079C43.4415 44.9504 40.0769 48 36 48C31.5817 48 28 44.4183 28 40C28 35.5817 31.5817 32 36 32H39.5Z" fill="#FCFCFD"/>
<path fill-rule="evenodd" clip-rule="evenodd" d="M36 41C36.5523 41 37 40.5523 37 40C37 39.4477 36.5523 39 36 39C35.4477 39 35 39.4477 35 40C35 40.5523 35.4477 41 36 41ZM36 43C37.6569 43 39 41.6569 39 40C39 38.3431 37.6569 37 36 37C34.3431 37 33 38.3431 33 40C33 41.6569 34.3431 43 36 43Z" fill="#FCFCFD"/>
</svg>
