<svg width="80" height="80" viewBox="0 0 80 80" fill="none" xmlns="http://www.w3.org/2000/svg">
<rect width="80" height="80" rx="24" fill="#EF466F"/>
<path fill-rule="evenodd" clip-rule="evenodd" d="M40 50C43.3137 50 46 47.3137 46 44C46 40.6863 43.3137 38 40 38C36.6863 38 34 40.6863 34 44C34 47.3137 36.6863 50 40 50ZM40 52C44.4183 52 48 48.4183 48 44C48 39.5817 44.4183 36 40 36C35.5817 36 32 39.5817 32 44C32 48.4183 35.5817 52 40 52Z" fill="#FCFCFD"/>
<path fill-rule="evenodd" clip-rule="evenodd" d="M40 46C41.1046 46 42 45.1046 42 44C42 42.8954 41.1046 42 40 42C38.8954 42 38 42.8954 38 44C38 45.1046 38.8954 46 40 46ZM40 48C42.2091 48 44 46.2091 44 44C44 41.7909 42.2091 40 40 40C37.7909 40 36 41.7909 36 44C36 46.2091 37.7909 48 40 48Z" fill="#FCFCFD"/>
<path d="M35.236 30C34.4927 30 34.0092 30.7823 34.3416 31.4472L36.9243 36.6126C36.3013 36.8723 35.7182 37.2085 35.1867 37.6094L32.5528 32.3416C31.5554 30.3469 33.0059 28 35.236 28H36.7639C37.9002 28 38.939 28.642 39.4472 29.6584L40 30.7639L40.5527 29.6584C41.0609 28.642 42.0997 28 43.236 28H44.7639C46.994 28 48.4445 30.3469 47.4472 32.3416L44.8133 37.6094C44.2818 37.2085 43.6986 36.8723 43.0756 36.6126L45.6583 31.4472C45.9908 30.7823 45.5073 30 44.7639 30H43.236C42.8573 30 42.511 30.214 42.3416 30.5528L41.118 33L42.8863 36.5365C42.1049 36.2341 41.2643 36.0509 40.3865 36.0092L37.6583 30.5528C37.4889 30.214 37.1427 30 36.7639 30H35.236Z" fill="#FCFCFD"/>
</svg>
