<svg width="80" height="80" viewBox="0 0 80 80" fill="none" xmlns="http://www.w3.org/2000/svg">
<rect width="80" height="80" rx="24" fill="#3772FF"/>
<path fill-rule="evenodd" clip-rule="evenodd" d="M48 45H32C31.4477 45 31 45.4477 31 46C31 46.5523 31.4477 47 32 47H48C48.5523 47 49 46.5523 49 46C49 45.4477 48.5523 45 48 45ZM32 43C30.3431 43 29 44.3431 29 46C29 47.6569 30.3431 49 32 49H48C49.6569 49 51 47.6569 51 46C51 44.3431 49.6569 43 48 43H32Z" fill="#FCFCFD"/>
<path d="M41 32C41 31.4477 40.5523 31 40 31C39.4477 31 39 31.4477 39 32V37.5858L37.7071 36.2929C37.3166 35.9024 36.6834 35.9024 36.2929 36.2929C35.9024 36.6834 35.9024 37.3166 36.2929 37.7071L39.2929 40.7071C39.6834 41.0976 40.3166 41.0976 40.7071 40.7071L43.7071 37.7071C44.0976 37.3166 44.0976 36.6834 43.7071 36.2929C43.3166 35.9024 42.6834 35.9024 42.2929 36.2929L41 37.5858V32Z" fill="#FCFCFD"/>
</svg>
