<svg width="20" height="20" viewBox="0 0 20 20" fill="none" xmlns="http://www.w3.org/2000/svg">
<g id="Icons/Facebook/Line">
<path id="Vector" fill-rule="evenodd" clip-rule="evenodd" d="M10.0001 16.667C13.682 16.667 16.6667 13.6822 16.6667 10.0003C16.6667 6.31843 13.682 3.33366 10.0001 3.33366C6.31818 3.33366 3.33341 6.31843 3.33341 10.0003C3.33341 13.6822 6.31818 16.667 10.0001 16.667ZM10.0001 18.3337C14.6024 18.3337 18.3334 14.6027 18.3334 10.0003C18.3334 5.39795 14.6024 1.66699 10.0001 1.66699C5.39771 1.66699 1.66675 5.39795 1.66675 10.0003C1.66675 14.6027 5.39771 18.3337 10.0001 18.3337Z" fill="#777E91"/>
<path id="Vector_2" d="M10.0001 8.33301C10.0001 7.87277 10.3732 7.49967 10.8334 7.49967H11.6667C12.127 7.49967 12.5001 7.12658 12.5001 6.66634C12.5001 6.20611 12.127 5.83301 11.6667 5.83301H10.8334C9.45266 5.83301 8.33341 6.9523 8.33341 8.33301V9.99967H7.50008C7.03985 9.99967 6.66675 10.3728 6.66675 10.833C6.66675 11.2933 7.03984 11.6663 7.50008 11.6663H8.33341V16.6663C8.33341 17.1266 8.7065 17.4997 9.16675 17.4997C9.627 17.4997 10.0001 17.1266 10.0001 16.6663V11.6663H11.6667C12.127 11.6663 12.5001 11.2933 12.5001 10.833C12.5001 10.3728 12.127 9.99967 11.6667 9.99967H10.0001V8.33301Z" fill="#777E91"/>
</g>
</svg>
