<svg width="20" height="20" viewBox="0 0 20 20" fill="none" xmlns="http://www.w3.org/2000/svg">
<g id="Icons/Instagram/Line">
<path id="Vector" fill-rule="evenodd" clip-rule="evenodd" d="M13.3334 3.33366H6.66675C4.8258 3.33366 3.33341 4.82604 3.33341 6.66699V13.3337C3.33341 15.1746 4.8258 16.667 6.66675 16.667H13.3334C15.1743 16.667 16.6667 15.1746 16.6667 13.3337V6.66699C16.6667 4.82604 15.1743 3.33366 13.3334 3.33366ZM6.66675 1.66699C3.90532 1.66699 1.66675 3.90557 1.66675 6.66699V13.3337C1.66675 16.0951 3.90532 18.3337 6.66675 18.3337H13.3334C16.0948 18.3337 18.3334 16.0951 18.3334 13.3337V6.66699C18.3334 3.90557 16.0948 1.66699 13.3334 1.66699H6.66675Z" fill="#777E91"/>
<path id="Vector_2" d="M14.1666 6.66667C14.6268 6.66667 14.9999 6.29357 14.9999 5.83333C14.9999 5.3731 14.6268 5 14.1666 5C13.7063 5 13.3333 5.3731 13.3333 5.83333C13.3333 6.29357 13.7063 6.66667 14.1666 6.66667Z" fill="#777E91"/>
<path id="Vector_3" fill-rule="evenodd" clip-rule="evenodd" d="M14.1666 9.99967C14.1666 12.3008 12.3011 14.1663 9.99992 14.1663C7.69874 14.1663 5.83325 12.3008 5.83325 9.99967C5.83325 7.69849 7.69874 5.83301 9.99992 5.83301C12.3011 5.83301 14.1666 7.69849 14.1666 9.99967ZM12.4999 9.99967C12.4999 11.3804 11.3807 12.4997 9.99992 12.4997C8.61917 12.4997 7.49992 11.3804 7.49992 9.99967C7.49992 8.61892 8.61917 7.49967 9.99992 7.49967C11.3807 7.49967 12.4999 8.61892 12.4999 9.99967Z" fill="#777E91"/>
</g>
</svg>
