<svg width="167" height="32" fill="none" xmlns="http://www.w3.org/2000/svg"><path d="M16 0C7.2 0 0 7.2 0 16s7.2 16 16 16 16-7.2 16-16S24.8 0 16 0zm8.133 17.333c.267 2.4 1.2 4.667 2.534 6.667-.534.667-1.2 1.333-1.867 2-2-2.533-3.2-5.467-3.467-8.667h-4V29.2c-.4 0-.933.133-1.333.133-.4 0-.933 0-1.333-.133V17.333h-4C10.4 20.533 9.2 23.467 7.2 26c-.667-.667-1.333-1.333-1.867-2 1.467-2 2.4-4.267 2.534-6.667H2.8c-.133-.4-.133-.933-.133-1.333 0-.4 0-.933.133-1.333H8C7.733 12.267 6.8 10 5.333 8c.534-.667 1.2-1.333 1.867-2 2 2.533 3.2 5.467 3.467 8.667h4V2.8c.4-.133.933-.133 1.333-.133.4 0 .933 0 1.333.133v11.867h4C21.6 11.467 22.8 8.533 24.8 6c.667.667 1.333 1.333 1.867 2-1.467 2-2.4 4.267-2.534 6.667h5.2c0 .4.134.933.134 1.333 0 .4 0 .933-.134 1.333h-5.2zM52 7.248V9.96h-6.984v4.296h5.352v2.664h-5.352V24h-3.36V7.248H52zm3.607 1.872c-.592 0-1.088-.184-1.488-.552a1.925 1.925 0 01-.576-1.416c0-.56.192-1.024.576-1.392.4-.384.896-.576 1.488-.576s1.08.192 1.464.576c.4.368.6.832.6 1.392 0 .56-.2 1.032-.6 1.416-.384.368-.872.552-1.464.552zm1.656 1.584V24h-3.36V10.704h3.36zm6.751 2.76v6.432c0 .448.104.776.312.984.224.192.592.288 1.104.288h1.56V24h-2.112c-2.832 0-4.248-1.376-4.248-4.128v-6.408h-1.584v-2.76h1.584V7.416h3.384v3.288h2.976v2.76h-2.976zm12.28-2.952c1.585 0 2.865.504 3.84 1.512.977.992 1.465 2.384 1.465 4.176V24h-3.36v-7.344c0-1.056-.264-1.864-.792-2.424-.528-.576-1.248-.864-2.16-.864-.928 0-1.664.288-2.208.864-.528.56-.792 1.368-.792 2.424V24h-3.36V10.704h3.36v1.656a4.555 4.555 0 011.704-1.344 5.28 5.28 0 012.304-.504zm20.38 6.552c0 .48-.032.912-.096 1.296h-9.72c.08.96.416 1.712 1.008 2.256.592.544 1.32.816 2.184.816 1.248 0 2.136-.536 2.664-1.608h3.624c-.384 1.28-1.12 2.336-2.208 3.168-1.088.816-2.424 1.224-4.008 1.224-1.28 0-2.432-.28-3.456-.84a6.182 6.182 0 01-2.376-2.424c-.56-1.04-.84-2.24-.84-3.6 0-1.376.28-2.584.84-3.624a5.861 5.861 0 012.352-2.4c1.008-.56 2.168-.84 3.48-.84 1.264 0 2.392.272 3.384.816a5.63 5.63 0 012.328 2.328c.56.992.84 2.136.84 3.432zm-3.48-.96c-.016-.864-.328-1.552-.936-2.064-.608-.528-1.352-.792-2.232-.792-.832 0-1.536.256-2.112.768-.56.496-.904 1.192-1.032 2.088h6.312zm10.541 8.112c-1.088 0-2.064-.192-2.928-.576-.864-.4-1.552-.936-2.064-1.608a4.092 4.092 0 01-.816-2.232h3.384c.064.512.312.936.744 1.272.448.336 1 .504 1.656.504.64 0 1.136-.128 1.488-.384.368-.256.552-.584.552-.984 0-.432-.224-.752-.672-.96-.432-.224-1.128-.464-2.088-.72-.992-.24-1.808-.488-2.448-.744a4.35 4.35 0 01-1.632-1.176c-.448-.528-.672-1.24-.672-2.136 0-.736.208-1.408.624-2.016.432-.608 1.04-1.088 1.824-1.44.8-.352 1.736-.528 2.808-.528 1.584 0 2.848.4 3.792 1.2.944.784 1.464 1.848 1.56 3.192h-3.216c-.048-.528-.272-.944-.672-1.248-.384-.32-.904-.48-1.56-.48-.608 0-1.08.112-1.416.336-.32.224-.48.536-.48.936 0 .448.224.792.672 1.032.448.224 1.144.456 2.088.696.96.24 1.752.488 2.376.744.624.256 1.16.656 1.608 1.2.464.528.704 1.232.72 2.112 0 .768-.216 1.456-.648 2.064-.416.608-1.024 1.088-1.824 1.44-.784.336-1.704.504-2.76.504zm12.598 0c-1.088 0-2.064-.192-2.928-.576-.864-.4-1.552-.936-2.064-1.608a4.092 4.092 0 01-.816-2.232h3.384c.064.512.312.936.744 1.272.448.336 1 .504 1.656.504.64 0 1.136-.128 1.488-.384.368-.256.552-.584.552-.984 0-.432-.224-.752-.672-.96-.432-.224-1.128-.464-2.088-.72-.992-.24-1.808-.488-2.448-.744a4.351 4.351 0 01-1.632-1.176c-.448-.528-.672-1.24-.672-2.136 0-.736.208-1.408.624-2.016.432-.608 1.04-1.088 1.824-1.44.8-.352 1.736-.528 2.808-.528 1.584 0 2.848.4 3.792 1.2.944.784 1.464 1.848 1.56 3.192h-3.216c-.048-.528-.272-.944-.672-1.248-.384-.32-.904-.48-1.56-.48-.608 0-1.08.112-1.416.336-.32.224-.48.536-.48.936 0 .448.224.792.672 1.032.448.224 1.144.456 2.088.696.96.24 1.752.488 2.376.744.624.256 1.16.656 1.608 1.2.464.528.704 1.232.72 2.112 0 .768-.216 1.456-.648 2.064-.416.608-1.024 1.088-1.824 1.44-.784.336-1.704.504-2.76.504zm24.965-11.784a5.14 5.14 0 01-.648 2.52c-.416.784-1.08 1.416-1.992 1.896-.896.48-2.032.72-3.408.72h-2.808V24h-3.36V7.248h6.168c1.296 0 2.4.224 3.312.672.912.448 1.592 1.064 2.04 1.848.464.784.696 1.672.696 2.664zm-6.192 2.424c.928 0 1.616-.208 2.064-.624.448-.432.672-1.032.672-1.8 0-1.632-.912-2.448-2.736-2.448h-2.664v4.872h2.664zm11.457-2.088a4.755 4.755 0 011.68-1.656c.704-.4 1.504-.6 2.4-.6v3.528h-.888c-1.056 0-1.856.248-2.4.744-.528.496-.792 1.36-.792 2.592V24h-3.36V10.704h3.36v2.064zm11.767 11.448c-1.28 0-2.432-.28-3.456-.84a6.301 6.301 0 01-2.424-2.424c-.576-1.04-.864-2.24-.864-3.6 0-1.36.296-2.56.888-3.6a6.253 6.253 0 012.472-2.4c1.04-.576 2.2-.864 3.48-.864 1.28 0 2.44.288 3.48.864a6.091 6.091 0 012.448 2.4c.608 1.04.912 2.24.912 3.6 0 1.36-.312 2.56-.936 3.6a6.377 6.377 0 01-2.496 2.424c-1.04.56-2.208.84-3.504.84zm0-2.928c.608 0 1.176-.144 1.704-.432.544-.304.976-.752 1.296-1.344.32-.592.48-1.312.48-2.16 0-1.264-.336-2.232-1.008-2.904-.656-.688-1.464-1.032-2.424-1.032s-1.768.344-2.424 1.032c-.64.672-.96 1.64-.96 2.904s.312 2.24.936 2.928c.64.672 1.44 1.008 2.4 1.008z" fill="#23262F"/></svg>