<svg width="20" height="20" viewBox="0 0 20 20" fill="none" xmlns="http://www.w3.org/2000/svg">
<g id="icons/Video/Filled">
<path id="Shape" fill-rule="evenodd" clip-rule="evenodd" d="M4.62109 2.82798C2.78878 3.05702 1.37465 4.45203 1.11717 6.28055C0.961446 7.38648 0.833374 8.69324 0.833374 10C0.833374 11.3068 0.961446 12.6135 1.11717 13.7194C1.37465 15.548 2.78879 16.943 4.62109 17.172C6.0205 17.3469 7.85721 17.5 10 17.5C12.1429 17.5 13.9796 17.3469 15.379 17.172C17.2113 16.943 18.6254 15.548 18.8829 13.7194C19.0386 12.6135 19.1667 11.3068 19.1667 10C19.1667 8.69324 19.0386 7.38648 18.8829 6.28055C18.6254 4.45203 17.2113 3.05702 15.379 2.82798C13.9796 2.65306 12.1429 2.5 10 2.5C7.85721 2.5 6.02049 2.65306 4.62109 2.82798ZM13.036 9.29333L8.77504 6.63021C8.22 6.28331 7.50004 6.68234 7.50004 7.33687V12.6631C7.50004 13.3177 8.22 13.7167 8.77504 13.3698L13.036 10.7067C13.5583 10.3803 13.5583 9.61972 13.036 9.29333Z" fill="#FCFCFD"/>
</g>
</svg>
