<svg width="32" height="32" viewBox="0 0 32 32" fill="none" xmlns="http://www.w3.org/2000/svg">
<g id="icons/Search/Line">
<path id="Shape" fill-rule="evenodd" clip-rule="evenodd" d="M19.8742 21.7598C18.0679 23.1639 15.7982 24 13.3333 24C7.44226 24 2.66663 19.2243 2.66663 13.3333C2.66663 7.44226 7.44226 2.66663 13.3333 2.66663C19.2243 2.66663 24 7.44226 24 13.3333C24 15.7982 23.1639 18.0679 21.7598 19.8742L28.9428 27.0571C29.4635 27.5779 29.4635 28.4221 28.9428 28.9428C28.4221 29.4635 27.5779 29.4635 27.0571 28.9428L19.8742 21.7598ZM21.3333 13.3333C21.3333 17.7516 17.7516 21.3333 13.3333 21.3333C8.91502 21.3333 5.33329 17.7516 5.33329 13.3333C5.33329 8.91502 8.91502 5.33329 13.3333 5.33329C17.7516 5.33329 21.3333 8.91502 21.3333 13.3333Z" fill="#777E91"/>
</g>
</svg>
